<?xml version="1.0" encoding="UTF-8"?>
<svg width="128" height="128" viewBox="0 0 128 128" fill="none" xmlns="http://www.w3.org/2000/svg" role="img" aria-labelledby="title desc">
  <title id="title">لاند سبايس LandSpices Logo</title>
  <desc id="desc">أيقونة فلفل حار بسيط مع حروف LS</desc>
  <defs>
    <linearGradient id="g1" x1="0" y1="0" x2="1" y2="1">
      <stop offset="0%" stop-color="#ff6b6b"/>
      <stop offset="100%" stop-color="#d62828"/>
    </linearGradient>
    <linearGradient id="g2" x1="0" y1="0" x2="1" y2="1">
      <stop offset="0%" stop-color="#2ecc71"/>
      <stop offset="100%" stop-color="#1e7b34"/>
    </linearGradient>
  </defs>
  <!-- chili body -->
  <path d="M22 86c18 22 56 22 76-6 5-7 8-15 8-20 0-2-2-3-4-2-5 2-12 5-19 5-16 0-31-11-36-26-1-3-5-4-7-1-6 8-10 18-10 29 0 7 1 14 4 21z" fill="url(#g1)"/>
  <!-- stalk -->
  <path d="M81 34c6-7 12-9 18-7-6 1-12 5-15 11 2 2 3 4 3 6-3-4-6-7-6-10z" fill="url(#g2)"/>
  <!-- LS letters -->
  <g fill="#ffffff" opacity=".95">
    <path d="M41 78h8v12H34V58h7v20z"/>
    <path d="M69 70c-3 2-5 3-5 5 0 2 2 3 5 3 3 0 6-1 10-3v7c-3 1-7 2-11 2-9 0-14-4-14-10 0-5 3-8 10-11 3-1 6-2 8-3 2-1 3-2 3-4 0-3-3-4-7-4-4 0-8 1-12 3v-7c3-1 7-2 12-2 9 0 15 4 15 10 0 5-4 9-14 14z"/>
  </g>
</svg>
